<?xml version="1.0" encoding="utf-8"?>
<!-- Generator: Adobe Illustrator 21.0.0, SVG Export Plug-In . SVG Version: 6.00 Build 0)  -->
<svg version="1.1" id="match_x5F_image" xmlns="http://www.w3.org/2000/svg" xmlns:xlink="http://www.w3.org/1999/xlink" x="0px"
	 y="0px" viewBox="0 0 694 287" style="enable-background:new 0 0 694 287;" xml:space="preserve">
<style type="text/css">
	.st0{fill:#32BE93;}
	.st1{font-family:'SegoeUI-Bold';}
	.st2{font-size:100px;}
	.st3{fill:#FFFFFF;}
	.st4{fill:#158677;}
</style>
<g id="match_x5F_image_x5F_group" transform="translate(-360 -440.707)">
	<rect id="Rectangle_263" x="360" y="553.4" class="st0" width="533.7" height="107.4"/>
	<text transform="matrix(1 0 0 1 365.394 548.707)" class="st0 st1 st2">WE MAKE </text>
	<text transform="matrix(1 0 0 1 365.394 648.707)" class="st3 st1 st2">MATCHES</text>
	<g id="match_x5F_flame" transform="translate(360 547.387)">
		<path id="flame" class="st4" d="M623.4,1c-0.8-0.6-1.8-1-2.8-1c-2.5,0-4.6,1.9-4.8,4.4c-2.6,28.3-43.2,39.2-43.2,72.6
			c0,29.1,23.2,44.8,44.2,45.5h1.2c24.7,0,49.1-13.1,49.1-48.4C667.1,37.8,637.8,11.6,623.4,1z M602.2,100.9c0-7.5,6.3-13.8,13-20.3
			c3.7-3.3,7-7,9.9-11c4.8,6.1,12.3,17.1,12.3,28.1c0,7-2.2,12.1-6.3,15.3c-4.4,3.3-10.2,3.9-13.5,3.9h-1
			C611.2,116.6,602.2,113,602.2,100.9z M648.2,107.2c-2.9,2.4-6.1,4.4-9.5,5.8c2.6-3.7,4.3-8.7,4.3-15.3c0-14.6-10.3-28.3-15.9-34.5
			c-0.5-0.6-1.4-1-2.2-1c-1.1,0-2.1,0.6-2.6,1.5c-6.6,12-25.5,21.5-25.5,37.1c-0.1,4.1,0.9,8.1,2.9,11.7c-3.2-1.5-6.1-3.5-8.7-5.8
			c-5.8-5.1-12.8-14.5-12.8-29.8c0-15.5,10.2-25.5,21-36.3c9.9-9.8,20.1-20,21.9-34.5c13,9.8,40.4,34.5,40.4,67.7
			C661.6,88.6,657,99.9,648.2,107.2L648.2,107.2z"/>
		<g id="line_x5F_right_x5F_middle" transform="translate(675.374 71.883)">
			<path id="Path_2595" class="st4" d="M15.9,5.5H2.8C1.2,5.5,0,4.3,0,2.8C0,1.2,1.2,0,2.8,0h13.1c1.5,0,2.8,1.2,2.8,2.8
				C18.6,4.3,17.4,5.5,15.9,5.5L15.9,5.5z"/>
		</g>
		<g id="line_x5F_right_x5F_top" transform="translate(655.339 8.525)">
			<path id="Path_2596" class="st4" d="M2.8,13.6c-0.9,0-1.7-0.4-2.2-1.1C-0.3,11.3-0.1,9.6,1,8.7c0,0,0.1,0,0.1-0.1l10.3-8
				c1.2-0.9,2.9-0.7,3.8,0.5c0,0,0,0.1,0.1,0.1c0.9,1.2,0.7,2.9-0.5,3.8c0,0-0.1,0-0.1,0.1L4.4,13C4,13.4,3.4,13.6,2.8,13.6z"/>
		</g>
		<g id="line_x5F_left_x5F_top" transform="translate(582.273 8.584)">
			<path id="Path_2597" class="st4" d="M13.1,13.5c-0.6,0-1.2-0.2-1.7-0.6l-10.3-8C-0.1,4-0.4,2.3,0.5,1.1c0.9-1.2,2.6-1.4,3.9-0.6
				l10.3,8c1.2,0.9,1.4,2.6,0.6,3.9C14.8,13.1,14,13.5,13.1,13.5z"/>
		</g>
		<g id="line_x5F_right_x5F_bottom" transform="translate(665.695 106.631)">
			<path id="Path_2598" class="st4" d="M14.4,11.5c-0.4,0-0.8-0.1-1.2-0.3L1.5,5.3C0.2,4.6-0.4,2.9,0.3,1.5C1,0.2,2.7-0.4,4,0.3
				l11.6,5.9c1.4,0.7,1.9,2.3,1.3,3.7c0,0,0,0,0,0C16.4,10.9,15.4,11.4,14.4,11.5z"/>
		</g>
		<g id="line_x5F_left_x5F_bottom" transform="translate(557.21 105.903)">
			<path id="Path_2599" class="st4" d="M2.8,12.9c-0.9,0-1.8-0.5-2.3-1.2c-0.8-1.3-0.5-3,0.7-3.9l10.8-7.3c1.3-0.9,3-0.5,3.9,0.7
				c0.8,1.2,0.5,2.9-0.7,3.8L4.3,12.3C3.9,12.7,3.4,12.9,2.8,12.9z"/>
		</g>
		<g id="line_x5F_left_x5F_middle" transform="translate(545.68 71.883)">
			<path id="Path_2600" class="st4" d="M15.9,5.5H2.8C1.2,5.5,0,4.3,0,2.8C0,1.2,1.2,0,2.8,0h13.1c1.5,0,2.8,1.2,2.8,2.8
				C18.6,4.3,17.4,5.5,15.9,5.5L15.9,5.5z"/>
		</g>
		<path id="Path_2601" class="st4" d="M616.7,129.4c-8.6,0-16.1,2.8-21.2,6.9H4.7c-2.6,0-4.7,2-4.7,4.6c0,0,0,0.1,0,0.1v15.5
			c0,2.6,2,4.7,4.6,4.7c0,0,0.1,0,0.1,0h590.8c5.1,4.3,12.7,6.9,21.2,6.9c15.2,0,27.6-8.7,27.6-19.3
			C644.3,138.1,631.9,129.4,616.7,129.4z M565.4,155.6h-5.1l13.9-13.9h5.1L565.4,155.6z M548.4,141.7h5.1l-13.9,13.9h-5.1
			L548.4,141.7z M526.8,155.6h-5.1l13.9-13.9h5.1L526.8,155.6z M561.4,141.7h5.1l-13.9,13.9h-5.1L561.4,141.7z M501.1,155.6H496
			l13.9-13.9h5.1L501.1,155.6z M407,141.7h5.1l-13.9,13.9h-5.1L407,141.7z M419.8,141.7h5.1L411,155.6h-5.1L419.8,141.7z
			 M432.7,141.7h5.1l-13.9,13.9h-5.1L432.7,141.7z M445.5,141.7h5.1l-13.9,13.9h-5.1L445.5,141.7z M458.3,141.7h5.2l-13.9,13.9h-5.2
			L458.3,141.7z M471.3,141.7h5.1l-13.9,13.9h-5.1L471.3,141.7z M484.1,141.7h5.1l-13.9,13.9h-5.1L484.1,141.7z M497,141.7h5.1
			l-13.9,13.9H483L497,141.7z M342.6,141.7h5.2l-13.9,13.9h-5.2L342.6,141.7z M355.5,141.7h5.1l-13.9,13.9h-5.1L355.5,141.7z
			 M368.4,141.7h5.1l-13.9,13.9h-5.1L368.4,141.7z M381.2,141.7h5.1l-13.9,13.9h-5.1L381.2,141.7z M303.9,141.7h5.1l-13.8,13.9h-5.1
			L303.9,141.7z M282.4,155.6h-5.1l13.9-13.9h5.1L282.4,155.6z M316.9,141.7h5.1l-13.9,13.9H303L316.9,141.7z M256.6,155.6h-5.1
			l13.9-13.9h5.1L256.6,155.6z M239.7,141.7h5.1l-13.9,13.9h-5.1L239.7,141.7z M218,155.6h-5.2l13.9-13.9h5.2L218,155.6z
			 M252.5,141.7h5.1l-13.9,13.9h-5L252.5,141.7z M219.1,141.7l-13.9,13.9h-5.1l13.9-13.9H219.1z M98.1,141.7h5.1l-13.9,13.9h-5.1
			L98.1,141.7z M110.9,141.7h5.1l-13.9,13.9H97L110.9,141.7z M123.9,141.7h5.2l-13.9,13.9H110L123.9,141.7z M136.7,141.7h5.1
			l-13.9,13.9h-5.1L136.7,141.7z M149.6,141.7h5.1l-13.9,13.9h-5.1L149.6,141.7z M162.5,141.7h5.1l-13.9,13.9h-5.1L162.5,141.7z
			 M175.4,141.7h5.2l-13.9,13.9h-5.2L175.4,141.7z M188.2,141.7h5.1l-13.9,13.9h-5.1L188.2,141.7z M201,141.7h5.1l-13.9,13.9h-5.1
			L201,141.7z M33.8,141.7h5.1L25,155.6h-5.1L33.8,141.7z M46.6,141.7h5.1l-13.9,13.9h-5.1L46.6,141.7z M59.5,141.7h5.1l-13.9,13.9
			h-5.1L59.5,141.7z M72.4,141.7h5.1l-13.9,13.9h-5.1L72.4,141.7z M8.4,141.7h4.8l-7.7,7.7v-7.7H8.4L8.4,141.7z M7,155.6L21,141.7
			h5.1l-13.9,13.9H7L7,155.6z M71.3,155.6l13.9-13.9h5.1l-13.9,13.9H71.3L71.3,155.6z M264.4,155.6l13.9-13.9h5.2l-13.9,13.9H264.4
			L264.4,155.6z M315.8,155.6l13.9-13.9h5.2l-13.9,13.9H315.8L315.8,155.6z M380.1,155.6l13.9-13.9h5.2l-13.9,13.9H380.1z
			 M508.9,155.6l13.9-13.9h5.1L514,155.6H508.9L508.9,155.6z M573.2,155.6l13.9-13.9h5.1l-13.9,13.9H573.2L573.2,155.6z M593,155.6
			h-7l8.1-8.1v8.1H593z M616.8,162.5c-6.9,0-13.1-2.1-17.2-5.2c0-0.3,0.1-0.6,0.1-0.8V141c0-0.3,0-0.6-0.1-0.8
			c4.1-3.2,10.3-5.2,17.2-5.2c12,0,22.1,6.3,22.1,13.8S628.7,162.5,616.8,162.5L616.8,162.5z"/>
	</g>
</g>
</svg>
