<svg xmlns="http://www.w3.org/2000/svg" viewBox="0 0 32 32">
  <defs>
    <style>
      .cls-1 {
        fill: #158677;
      }
    </style>
  </defs>
  <path id="Path_208" data-name="Path 208" class="cls-1" d="M63.8,0a16,16,0,1,0,16,16A16.047,16.047,0,0,0,63.8,0Zm6.4,12.7v.4a9.256,9.256,0,0,1-9.3,9.3,8.447,8.447,0,0,1-5-1.5h.8a6.561,6.561,0,0,0,4.1-1.4,3.439,3.439,0,0,1-3.1-2.3c.2,0,.4.1.6.1a2.769,2.769,0,0,0,.9-.1A3.228,3.228,0,0,1,56.6,14h0a3.313,3.313,0,0,0,1.5.4,3.282,3.282,0,0,1-1.5-2.7A4.711,4.711,0,0,1,57,10a9.032,9.032,0,0,0,6.8,3.4,1.7,1.7,0,0,1-.1-.7A3.329,3.329,0,0,1,67,9.4a3.492,3.492,0,0,1,2.4,1,5.387,5.387,0,0,0,2.1-.8,3.192,3.192,0,0,1-1.4,1.8,10.548,10.548,0,0,0,1.9-.5A7.637,7.637,0,0,1,70.2,12.7Z" transform="translate(-47.8)"/>
</svg>
