<svg id="Group_179" data-name="Group 179" xmlns="http://www.w3.org/2000/svg" viewBox="0 0 32 32">
  <defs>
    <style>
      .cls-1 {
        fill: #158677;
      }
    </style>
  </defs>
  <path id="Path_209" data-name="Path 209" class="cls-1" d="M112.6,14.8Z" transform="translate(-95.6 0)"/>
  <path id="Path_210" data-name="Path 210" class="cls-1" d="M111.6,0a16,16,0,1,0,16,16A16.047,16.047,0,0,0,111.6,0Zm-4.4,23.6h-3.4V13.3h3.4Zm-1.7-11.7h0a1.76,1.76,0,0,1-1.9-1.8,1.817,1.817,0,0,1,1.9-1.8,1.76,1.76,0,0,1,1.9,1.8A1.708,1.708,0,0,1,105.5,11.9Zm14.1,11.7h-3.4V18.1c0-1.4-.5-2.3-1.7-2.3a1.935,1.935,0,0,0-1.9,2.1v5.8h-3.4V13.4h3.4v1.5a3.511,3.511,0,0,1,3.1-1.7c2.3,0,3.9,1.5,3.9,4.6Z" transform="translate(-95.6)"/>
</svg>
