<svg xmlns="http://www.w3.org/2000/svg" viewBox="0 0 23.918 27.997">
  <defs>
    <style>
      .cls-1 {
        fill: none;
      }

      .cls-2, .cls-4 {
        fill: #fff;
      }

      .cls-3, .cls-4 {
        stroke: none;
      }
    </style>
  </defs>
  <g id="Location" transform="translate(-181.782 -1119.598)">
    <g id="Path_95" data-name="Path 95" class="cls-1" transform="translate(181.782 1119.598)">
      <path class="cls-3" d="M11.959,0A11.771,11.771,0,0,1,23.918,11.573C23.918,20.353,11.959,28,11.959,28S0,20.428,0,11.573A11.771,11.771,0,0,1,11.959,0Z"/>
      <path class="cls-4" d="M 11.95912456512451 4.000003814697266 C 7.570444107055664 4.000003814697266 3.999994277954102 7.397403717041016 3.999994277954102 11.57336235046387 C 3.999994277954102 14.74295330047607 6.561594009399414 18.00252342224121 8.710515022277832 20.1788330078125 C 9.849289894104004 21.33212280273438 11.00362110137939 22.31337738037109 11.95051097869873 23.05787658691406 C 12.90005970001221 22.30698776245117 14.05857372283936 21.31757354736328 15.20175457000732 20.15653228759766 C 16.66515350341797 18.67028427124023 17.81337356567383 17.20208358764648 18.61452484130859 15.79272270202637 C 19.4796142578125 14.27090263366699 19.91824340820313 12.85130310058594 19.91824340820313 11.57336235046387 C 19.91824340820313 7.397403717041016 16.34779357910156 4.000003814697266 11.95912456512451 4.000003814697266 M 11.95912456512451 3.814697265625e-06 C 18.56396484375 3.814697265625e-06 23.91824531555176 5.181573867797852 23.91824531555176 11.57336235046387 C 23.91824531555176 20.35319328308105 11.95912456512451 27.99682235717773 11.95912456512451 27.99682235717773 C 11.95912456512451 27.99682235717773 -5.7220458984375e-06 20.42786407470703 -5.7220458984375e-06 11.57336235046387 C -5.7220458984375e-06 5.181573867797852 5.354284286499023 3.814697265625e-06 11.95912456512451 3.814697265625e-06 Z"/>
    </g>
    <ellipse id="Ellipse_2" data-name="Ellipse 2" class="cls-2" cx="3.584" cy="3.584" rx="3.584" ry="3.584" transform="translate(190.283 1127.265)"/>
  </g>
</svg>
