<svg xmlns="http://www.w3.org/2000/svg" viewBox="0 0 23.918 27.997"><g transform="translate(-181.782 -1119.598)"><g data-name="Path 95" fill="none"><path d="M193.741 1119.598a11.771 11.771 0 0 1 11.959 11.573c0 8.78-11.959 16.427-11.959 16.427s-11.959-7.572-11.959-16.427a11.771 11.771 0 0 1 11.959-11.573z"/><path d="M193.741 1123.598c-4.389 0-7.959 3.397-7.959 7.573 0 3.17 2.562 6.43 4.71 8.606a35.01 35.01 0 0 0 3.24 2.879c.95-.751 2.109-1.74 3.252-2.901 1.463-1.487 2.611-2.955 3.413-4.364.865-1.522 1.303-2.942 1.303-4.22 0-4.176-3.57-7.573-7.959-7.573m0-4c6.605 0 11.96 5.182 11.96 11.573 0 8.78-11.96 16.424-11.96 16.424s-11.959-7.57-11.959-16.424c0-6.391 5.354-11.573 11.96-11.573z" fill="#fff"/></g><ellipse data-name="Ellipse 2" cx="3.584" cy="3.584" rx="3.584" ry="3.584" transform="translate(190.283 1127.265)" fill="#fff"/></g></svg>