<?xml version="1.0" encoding="utf-8"?>
<!-- Generator: Adobe Illustrator 21.0.2, SVG Export Plug-In . SVG Version: 6.00 Build 0)  -->
<svg version="1.1" id="Layer_1" xmlns="http://www.w3.org/2000/svg" xmlns:xlink="http://www.w3.org/1999/xlink" x="0px" y="0px"
	 viewBox="0 0 260.6 259.3" style="enable-background:new 0 0 260.6 259.3;" xml:space="preserve">
<style type="text/css">
	.st0{fill:#FFFFFF;}
	.st1{clip-path:url(#SVGID_2_);}
	.st2{fill:#3C3C3B;}
	.st3{opacity:0.75;}
</style>
<g>
	<g>
		<g>
			<path d="M130.3,259.3c-3.7,0-7.3-1.6-9.9-4.4c-5.1-5.5-13.6-8.9-22-8.9c-3.8,0-7.3,0.7-10.4,2c-1.8,0.8-3.6,1.1-5.4,1.1
				c-5.8,0-10.8-3.6-12.7-9.2c-3.7-10.5-15.7-19.3-26.9-19.5c-3.9-0.1-7.4-1.7-9.9-4.4c-2.5-2.8-3.7-6.5-3.4-10.3
				c0.9-11.1-6.5-24-16.6-28.8c-3.5-1.6-6.1-4.5-7.2-8.1c-1.2-3.6-0.8-7.4,1.1-10.8c5.4-9.8,3.8-24.6-3.5-33
				c-2.5-2.9-3.7-6.6-3.3-10.3c0.4-3.7,2.3-7.1,5.4-9.4c8.9-6.7,13.5-20.9,10.3-31.6c-1.1-3.7-0.7-7.5,1.2-10.8
				c1.9-3.3,5-5.5,8.8-6.4C36.5,54,46.5,42.9,47.9,31.8c0.9-6.9,6.5-11.9,13.4-11.9c0.9,0,1.8,0.1,2.7,0.3c1.5,0.3,3,0.4,4.6,0.4
				c10.2,0,20.8-5.7,25.7-13.9c2.5-4.2,6.8-6.7,11.6-6.7c2.8,0,5.5,0.9,7.8,2.5c4.5,3.1,10.4,4.8,16.6,4.8c6.2,0,12.1-1.7,16.6-4.8
				c2.4-1.6,5.1-2.5,7.9-2.5c4.7,0,9.1,2.5,11.6,6.7c5,8.2,15.5,13.9,25.7,13.9c1.6,0,3.1-0.1,4.6-0.4c0.9-0.2,1.8-0.3,2.7-0.3
				c6.9,0,12.5,5,13.4,11.9c1.4,11.1,11.4,22.1,22.2,24.7c3.8,0.9,6.9,3.2,8.8,6.4c1.9,3.3,2.3,7.1,1.2,10.8
				c-3.2,10.7,1.4,24.8,10.3,31.6c3.1,2.3,5,5.7,5.4,9.4c0.4,3.7-0.8,7.4-3.3,10.3c-7.3,8.4-8.9,23.2-3.5,33
				c1.9,3.4,2.3,7.2,1.1,10.8c-1.2,3.6-3.7,6.4-7.2,8.1c-10.1,4.7-17.6,17.6-16.6,28.8c0.3,3.9-0.9,7.5-3.4,10.3
				c-2.5,2.8-6,4.4-9.9,4.4c-11.2,0.2-23.2,9-26.9,19.5c-1.9,5.6-6.9,9.2-12.7,9.2c-1.8,0-3.7-0.4-5.4-1.1c-3.1-1.3-6.7-2-10.4-2
				c-8.5,0-16.9,3.4-22,8.9C137.6,257.8,134.1,259.3,130.3,259.3z"/>
		</g>
		<g>
			<g>
				<path class="st0" d="M154.8,5.1c2.9,0,5.6,1.6,7.2,4.2c5.8,9.7,18.2,16.4,30.1,16.4c1.9,0,3.7-0.2,5.6-0.5
					c0.6-0.1,1.2-0.2,1.7-0.2c4.3,0,7.7,3.1,8.3,7.4c1.7,13.2,13.2,26,26.2,29c2.4,0.5,4.3,1.9,5.5,4c1.2,2,1.4,4.4,0.7,6.7
					c-3.9,12.8,1.4,29.1,12.1,37.2c1.9,1.5,3.2,3.6,3.4,5.9c0.2,2.3-0.5,4.6-2.1,6.4c-8.7,10.1-10.5,27.2-4.1,38.9
					c1.2,2.1,1.4,4.5,0.7,6.7c-0.7,2.2-2.3,4-4.5,5c-12.1,5.7-20.7,20.5-19.6,33.9c0.2,2.4-0.5,4.7-2.1,6.4
					c-1.5,1.7-3.7,2.7-6.2,2.8c-13.4,0.3-27.2,10.3-31.6,23c-1.2,3.5-4.3,5.7-7.8,5.7c-1.2,0-2.3-0.2-3.4-0.7
					c-3.7-1.6-8-2.4-12.4-2.4c-9.8,0-19.7,4-25.8,10.5c-1.7,1.8-3.9,2.8-6.2,2.8c-2.3,0-4.5-1-6.2-2.8c-6.1-6.5-16-10.5-25.8-10.5
					c-4.5,0-8.7,0.8-12.4,2.4c-1.1,0.5-2.3,0.7-3.4,0.7c-3.6,0-6.6-2.3-7.8-5.7c-4.4-12.6-18.3-22.7-31.6-23c-2.4,0-4.6-1-6.2-2.7
					c-1.5-1.7-2.3-4-2.1-6.4c1.1-13.3-7.5-28.2-19.6-33.8c-2.2-1-3.8-2.8-4.5-5c-0.7-2.2-0.5-4.6,0.7-6.7
					c6.5-11.7,4.7-28.8-4.1-38.9c-1.6-1.8-2.4-4.1-2.1-6.4c0.2-2.3,1.5-4.4,3.4-5.9c10.7-8.1,16-24.4,12.1-37.2
					c-0.7-2.4-0.5-4.7,0.7-6.7c1.2-2,3.1-3.4,5.5-4c13-3.1,24.5-15.8,26.2-29c0.5-4.3,4-7.4,8.3-7.4c0.6,0,1.2,0.1,1.7,0.2
					c1.8,0.3,3.7,0.5,5.6,0.5c11.9,0,24.3-6.7,30.1-16.4c1.6-2.6,4.3-4.2,7.2-4.2c1.7,0,3.4,0.6,4.9,1.6c5.3,3.7,12.3,5.7,19.5,5.7
					c7.3,0,14.2-2,19.5-5.7C151.4,5.7,153.1,5.1,154.8,5.1 M154.8,3.2c-2.1,0-4.2,0.7-6,1.9c-5,3.5-11.6,5.4-18.5,5.4
					c-6.9,0-13.4-1.9-18.5-5.4c-1.8-1.3-3.9-1.9-6-1.9c-3.6,0-6.9,1.9-8.8,5.1c-5.5,9.1-17.2,15.5-28.5,15.5c-1.8,0-3.5-0.2-5.2-0.5
					c-0.7-0.1-1.4-0.2-2.1-0.2c-5.2,0-9.5,3.8-10.2,9.1c-1.6,12.5-12.4,24.5-24.7,27.4c-2.9,0.7-5.3,2.4-6.7,4.9
					c-1.4,2.5-1.7,5.4-0.9,8.2c3.7,12.1-1.4,27.5-11.4,35.1c-2.4,1.8-3.8,4.4-4.1,7.2c-0.3,2.8,0.6,5.6,2.6,7.9
					c8.3,9.5,9.9,25.7,3.8,36.7c-1.4,2.6-1.7,5.5-0.9,8.2c0.9,2.7,2.8,4.9,5.5,6.2c11.4,5.4,19.5,19.4,18.5,32
					c-0.3,3,0.7,5.8,2.6,7.9c1.9,2.1,4.6,3.3,7.6,3.4c12.6,0.2,25.7,9.8,29.9,21.7c1.5,4.3,5.3,7,9.6,7c1.4,0,2.8-0.3,4.2-0.9
					c3.5-1.5,7.5-2.2,11.7-2.2c9.3,0,18.7,3.8,24.4,9.9c2,2.2,4.7,3.4,7.6,3.4c2.9,0,5.5-1.2,7.6-3.4c5.7-6.1,15.1-9.9,24.4-9.9
					c4.2,0,8.2,0.8,11.7,2.2c1.3,0.6,2.8,0.9,4.2,0.9c4.4,0,8.2-2.8,9.6-7c4.1-11.9,17.3-21.4,29.9-21.7c3-0.1,5.7-1.3,7.6-3.4
					c1.9-2.1,2.8-4.9,2.6-7.9c-1.1-12.6,7-26.6,18.5-32c2.7-1.3,4.6-3.5,5.5-6.2c0.9-2.7,0.6-5.6-0.9-8.2c-6.1-11-4.4-27.2,3.8-36.7
					c2-2.2,2.9-5,2.6-7.9c-0.3-2.8-1.8-5.4-4.1-7.2c-10-7.6-15.1-23-11.4-35.1c0.9-2.8,0.6-5.8-0.9-8.2c-1.4-2.5-3.8-4.2-6.7-4.9
					c-12.3-2.9-23.1-14.9-24.7-27.4c-0.7-5.3-4.9-9.1-10.2-9.1c-0.7,0-1.4,0.1-2.1,0.2c-1.7,0.3-3.4,0.5-5.2,0.5
					c-11.3,0-23-6.4-28.5-15.5C161.7,5.1,158.4,3.2,154.8,3.2L154.8,3.2z"/>
			</g>
		</g>
	</g>
	<g>
		<defs>
			<path id="SVGID_1_" d="M248.8,159.2c1.4,2.5,1.7,5.4,0.8,8c-0.9,2.7-2.8,4.8-5.4,6c-11.2,5.2-19.1,19-18.1,31.3
				c0.2,2.9-0.6,5.6-2.5,7.7c-1.9,2.1-4.5,3.3-7.4,3.3c-12.4,0.2-25.2,9.6-29.3,21.2c-1.4,4.2-5.2,6.9-9.4,6.9
				c-1.4,0-2.8-0.3-4.1-0.8c-3.4-1.4-7.4-2.2-11.5-2.2c-9.1,0-18.3,3.7-23.9,9.7c-2,2.1-4.6,3.3-7.4,3.3c-2.8,0-5.4-1.2-7.4-3.3
				c-5.6-6-14.8-9.7-23.9-9.7c-4.1,0-8,0.7-11.5,2.2c-1.3,0.6-2.7,0.9-4.1,0.9c-4.3,0-8-2.7-9.4-6.9c-4.1-11.7-16.9-21-29.3-21.2
				c-2.9-0.1-5.5-1.2-7.4-3.3c-1.9-2.1-2.8-4.8-2.5-7.7c1.1-12.3-6.9-26.1-18.1-31.3c-2.6-1.2-4.6-3.4-5.4-6
				c-0.9-2.7-0.6-5.5,0.8-8.1c6-10.8,4.3-26.6-3.8-35.9c-1.9-2.2-2.8-4.9-2.5-7.7c0.3-2.8,1.7-5.3,4.1-7
				c9.8-7.4,14.8-22.5,11.2-34.4c-0.8-2.8-0.5-5.7,0.9-8.1c1.4-2.4,3.7-4.1,6.6-4.8c12-2.8,22.6-14.6,24.2-26.9
				c0.6-5.2,4.8-8.9,9.9-8.9c0.7,0,1.4,0.1,2,0.2c1.7,0.3,3.4,0.5,5.1,0.5c11,0,22.5-6.2,27.9-15.2c1.9-3.1,5.1-5,8.6-5
				c2.1,0,4.1,0.7,5.9,1.9c4.9,3.4,11.3,5.3,18.1,5.3c6.8,0,13.2-1.9,18.1-5.3c1.8-1.2,3.8-1.9,5.9-1.9c3.5,0,6.7,1.9,8.6,5
				c5.4,8.9,16.9,15.2,27.9,15.2c1.7,0,3.5-0.2,5.1-0.5c0.7-0.1,1.4-0.2,2.1-0.2c5.1,0,9.3,3.8,9.9,8.9c1.5,12.3,12.2,24,24.2,26.9
				c2.8,0.6,5.2,2.4,6.6,4.8c1.4,2.4,1.7,5.3,0.9,8.1c-3.6,11.8,1.3,26.9,11.2,34.4c2.3,1.8,3.8,4.3,4.1,7c0.3,2.8-0.6,5.5-2.5,7.7
				C244.5,132.6,242.8,148.4,248.8,159.2z"/>
		</defs>
		<clipPath id="SVGID_2_">
			<use xlink:href="#SVGID_1_"  style="overflow:visible;"/>
		</clipPath>
		<g class="st1">
			<g>
				<g>
					<polygon class="st2" points="-49.7,133.9 -50.6,133.1 133.9,-51.4 134.7,-50.5 					"/>
				</g>
			</g>
			<g>
				<g>
					<polygon class="st2" points="-46.2,137.4 -47.1,136.6 -46.8,136.2 137.4,-47.9 138.2,-47 137.9,-46.7 					"/>
				</g>
			</g>
			<g>
				<g>
					
						<rect x="-81.4" y="47.6" transform="matrix(0.7071 -0.7071 0.7071 0.7071 -19.7446 48.7939)" class="st2" width="260.9" height="1.2"/>
				</g>
			</g>
			<g>
				<g>
					<polygon class="st2" points="-39.3,144.4 -40.2,143.5 144.3,-41 145.2,-40.1 					"/>
				</g>
			</g>
			<g>
				<g>
					<polygon class="st2" points="-35.8,147.8 -36.7,147 -36.4,146.6 147.8,-37.5 148.6,-36.6 148.3,-36.3 					"/>
				</g>
			</g>
			<g>
				<g>
					
						<rect x="-71" y="58" transform="matrix(0.7071 -0.7071 0.7071 0.7071 -24.0608 59.2144)" class="st2" width="260.9" height="1.2"/>
				</g>
			</g>
			<g>
				<g>
					<polygon class="st2" points="-28.9,154.8 -29.7,153.9 -29.4,153.6 154.7,-30.5 155.6,-29.7 					"/>
				</g>
			</g>
			<g>
				<g>
					<polygon class="st2" points="-25.4,158.3 -26.3,157.4 158.2,-27.1 159.1,-26.2 158.7,-25.9 					"/>
				</g>
			</g>
			<g>
				<g>
					<polygon class="st2" points="-21.9,161.7 -22.8,160.9 161.7,-23.6 162.5,-22.7 162.2,-22.4 					"/>
				</g>
			</g>
			<g>
				<g>
					<polygon class="st2" points="-18.5,165.2 -19.3,164.4 -19,164 165.1,-20.1 166,-19.3 					"/>
				</g>
			</g>
			<g>
				<g>
					<polygon class="st2" points="-15,168.7 -15.8,167.8 168.6,-16.6 169.5,-15.8 					"/>
				</g>
			</g>
			<g>
				<g>
					<polygon class="st2" points="-11.5,172.2 -12.4,171.3 172.1,-13.2 173,-12.3 172.6,-12 					"/>
				</g>
			</g>
			<g>
				<g>
					<polygon class="st2" points="-8,175.6 -8.9,174.8 -8.6,174.4 175.6,-9.7 176.4,-8.8 					"/>
				</g>
			</g>
			<g>
				<g>
					<polygon class="st2" points="-4.6,179.1 -5.4,178.2 179,-6.2 179.9,-5.4 					"/>
				</g>
			</g>
			<g>
				<g>
					<polygon class="st2" points="-1.1,182.6 -2,181.7 182.5,-2.7 183.4,-1.9 183,-1.6 					"/>
				</g>
			</g>
			<g>
				<g>
					<polygon class="st2" points="2.4,186.1 1.5,185.2 186,0.7 186.8,1.6 186.5,1.9 					"/>
				</g>
			</g>
			<g>
				<g>
					<polygon class="st2" points="5.9,189.5 5,188.7 189.5,4.2 190.3,5.1 190,5.4 					"/>
				</g>
			</g>
			<g>
				<g>
					<polygon class="st2" points="9.3,193 8.5,192.1 8.8,191.8 192.9,7.7 193.8,8.5 193.5,8.9 					"/>
				</g>
			</g>
			<g>
				<g>
					<polygon class="st2" points="12.8,196.5 11.9,195.6 196.4,11.1 197.3,12 196.9,12.3 					"/>
				</g>
			</g>
			<g>
				<g>
					<polygon class="st2" points="16.3,199.9 15.4,199.1 15.7,198.7 199.9,14.6 200.7,15.5 200.4,15.8 					"/>
				</g>
			</g>
			<g>
				<g>
					<polygon class="st2" points="19.7,203.4 18.9,202.6 19.2,202.2 203.3,18.1 204.2,19 203.9,19.3 					"/>
				</g>
			</g>
			<g>
				<g>
					<polygon class="st2" points="23.2,206.9 22.4,206 206.8,21.6 207.7,22.4 					"/>
				</g>
			</g>
			<g>
				<g>
					<polygon class="st2" points="26.7,210.4 25.8,209.5 210.3,25 211.2,25.9 210.8,26.2 					"/>
				</g>
			</g>
			<g>
				<g>
					
						<rect x="-8.5" y="120.6" transform="matrix(0.7091 -0.7051 0.7051 0.7091 -49.9591 121.25)" class="st2" width="260.9" height="1.2"/>
				</g>
			</g>
			<g>
				<g>
					<polygon class="st2" points="33.6,217.3 32.8,216.4 217.2,32 218.1,32.8 217.8,33.2 					"/>
				</g>
			</g>
			<g>
				<g>
					<polygon class="st2" points="37.1,220.8 36.3,219.9 36.6,219.6 220.7,35.5 221.6,36.3 221.2,36.6 					"/>
				</g>
			</g>
			<g>
				<g>
					<polygon class="st2" points="40.6,224.3 39.7,223.4 224.2,38.9 225.1,39.8 					"/>
				</g>
			</g>
			<g>
				<g>
					<polygon class="st2" points="44.1,227.7 43.2,226.9 227.7,42.4 228.5,43.3 228.2,43.6 					"/>
				</g>
			</g>
			<g>
				<g>
					<polygon class="st2" points="47.5,231.2 46.7,230.3 47,230 231.1,45.9 232,46.7 231.7,47.1 					"/>
				</g>
			</g>
			<g>
				<g>
					<polygon class="st2" points="51,234.7 50.1,233.8 234.6,49.4 235.5,50.2 					"/>
				</g>
			</g>
			<g>
				<g>
					<polygon class="st2" points="54.5,238.1 53.6,237.3 54,237 238.1,52.8 238.9,53.7 					"/>
				</g>
			</g>
			<g>
				<g>
					<polygon class="st2" points="58,241.6 57.1,240.8 241.6,56.3 242.4,57.2 242.1,57.5 					"/>
				</g>
			</g>
			<g>
				<g>
					<polygon class="st2" points="61.4,245.1 60.6,244.2 60.9,243.9 245,59.8 245.9,60.6 					"/>
				</g>
			</g>
			<g>
				<g>
					<polygon class="st2" points="64.9,248.6 64,247.7 248.5,63.2 249.4,64.1 249,64.4 					"/>
				</g>
			</g>
			<g>
				<g>
					<polygon class="st2" points="68.4,252 67.5,251.2 252,66.7 252.8,67.6 252.5,67.9 					"/>
				</g>
			</g>
			<g>
				<g>
					<polygon class="st2" points="71.8,255.5 71,254.6 71.3,254.3 255.5,70.2 256.3,71.1 256,71.4 					"/>
				</g>
			</g>
			<g>
				<g>
					<polygon class="st2" points="75.3,259 74.5,258.1 258.9,73.7 259.8,74.5 259.5,74.9 					"/>
				</g>
			</g>
			<g>
				<g>
					<polygon class="st2" points="78.8,262.5 77.9,261.6 78.3,261.3 262.4,77.1 263.3,78 262.9,78.3 					"/>
				</g>
			</g>
			<g>
				<g>
					<polygon class="st2" points="82.3,265.9 81.4,265.1 81.7,264.7 265.9,80.6 266.7,81.5 266.4,81.8 					"/>
				</g>
			</g>
			<g>
				<g>
					<polygon class="st2" points="85.7,269.4 84.9,268.5 269.3,84.1 270.2,85 					"/>
				</g>
			</g>
			<g>
				<g>
					<polygon class="st2" points="89.2,272.9 88.4,272 272.8,87.6 273.7,88.4 273.3,88.8 					"/>
				</g>
			</g>
			<g>
				<g>
					<polygon class="st2" points="92.7,276.4 91.8,275.5 276.3,91 277.2,91.9 276.8,92.2 					"/>
				</g>
			</g>
			<g>
				<g>
					<polygon class="st2" points="96.2,279.8 95.3,279 279.8,94.5 280.6,95.4 280.3,95.7 					"/>
				</g>
			</g>
			<g>
				<g>
					<polygon class="st2" points="99.6,283.3 98.8,282.4 283.2,98 284.1,98.8 283.8,99.2 					"/>
				</g>
			</g>
			<g>
				<g>
					<polygon class="st2" points="103.1,286.8 102.2,285.9 286.7,101.4 287.6,102.3 287.2,102.6 					"/>
				</g>
			</g>
			<g>
				<g>
					<polygon class="st2" points="106.6,290.3 105.7,289.4 290.2,104.9 291,105.8 					"/>
				</g>
			</g>
			<g>
				<g>
					
						<rect x="71.4" y="200.5" transform="matrix(0.7071 -0.7071 0.7071 0.7071 -83.0492 201.6237)" class="st2" width="260.9" height="1.2"/>
				</g>
			</g>
			<g>
				<g>
					<polygon class="st2" points="113.5,297.2 112.7,296.3 113,296 297.1,111.9 298,112.7 297.7,113.1 					"/>
				</g>
			</g>
			<g>
				<g>
					<polygon class="st2" points="117,300.7 116.1,299.8 116.5,299.5 300.6,115.3 301.5,116.2 301.1,116.5 					"/>
				</g>
			</g>
			<g>
				<g>
					<polygon class="st2" points="120.5,304.1 119.6,303.3 304.1,118.8 304.9,119.7 304.6,120 					"/>
				</g>
			</g>
			<g>
				<g>
					<polygon class="st2" points="124,307.6 123.1,306.8 123.4,306.4 307.6,122.3 308.4,123.2 					"/>
				</g>
			</g>
			<g>
				<g>
					<polygon class="st2" points="127.4,311.1 126.6,310.2 311,125.8 311.9,126.6 311.6,127 					"/>
				</g>
			</g>
		</g>
	</g>
	<g>
		<g class="st3">
			<g>
				<path class="st0" d="M61.1,83.5h-6.9v-7.8h21.5v7.8h-6.9v52.6h-7.8V83.5z"/>
			</g>
			<g>
				<path class="st0" d="M94.3,124.3h-8.6l-1.2,11.8h-7.8l6.4-60.3h13.8l6.2,60.3h-7.6L94.3,124.3z M86.6,116.5h6.9l-3.4-33
					L86.6,116.5z"/>
			</g>
			<g>
				<path class="st0" d="M108,75.7h7.8v52.6h9.1v7.8H108V75.7z"/>
			</g>
			<g>
				<path class="st0" d="M149.9,136.1h-20V75.7h19.4v7.8h-11.6v16.6h8.2v7.8h-8.2v20.4h12.2V136.1z"/>
			</g>
			<g>
				<path class="st0" d="M165.4,75.7l7.4,30v-30h7.8v60.3h-9.1l-7.8-32.4v32.4h-7.8V75.7H165.4z"/>
			</g>
			<g>
				<path class="st0" d="M191.8,83.5h-6.9v-7.8h21.5v7.8h-6.9v52.6h-7.8V83.5z"/>
			</g>
			<g>
				<path class="st0" d="M55,76.8h19.8v6l-3.4-3.4H57.6L55,76.8z M65.4,80.3l2.6,2.6v52.6l-2.6-2.6V80.3z"/>
			</g>
			<g>
				<path class="st0" d="M83.7,135.4l-2.2-2.2l1.2-11.8l2.2,2.2L83.7,135.4z M86.9,80.3l2.3,2.6l-3.6,34.7h8.9l2.7,2.6H82.8
					L86.9,80.3z M83.8,76.8h12.2l6.1,58.6l-3-3l-5.5-53h-7.5L83.8,76.8z"/>
			</g>
			<g>
				<path class="st0" d="M112.3,80.3l-3.4-3.4h6v52.6h9.1v6l-3.4-3.5h-8.3V80.3z"/>
			</g>
			<g>
				<path class="st0" d="M130.8,76.8h17.7v6l-3.5-3.4h-11.3L130.8,76.8z M134.2,80.3l2.6,2.5v18.4h8.2v6l-3.5-3.4h-7.2V80.3z
					 M134.2,105.6l2.6,2.5v21.3h12.2v6l-3.4-3.5h-11.4V105.6z"/>
			</g>
			<g>
				<path class="st0" d="M174,114.2l2.4,17.9l-14-52.7h-3l-2.6-2.6h7.8L174,114.2z M162.8,135.4l-2.6-2.6V80.3l2.6,20.2V135.4z
					 M179.7,76.8v58.6l-2.6-2.6V80.3l-3.4-3.4H179.7z"/>
			</g>
			<g>
				<path class="st0" d="M185.8,76.8h19.8v6l-3.4-3.4h-13.8L185.8,76.8z M196.1,80.3l2.6,2.6v52.6l-2.6-2.6V80.3z"/>
			</g>
			<g>
				<path class="st0" d="M69.9,148.8h15.9c2.9,0,5.2,2.4,5.2,5.2v19.4c0,2.2-1.1,3.8-2.7,4.2c2.3,0.5,3.6,2.9,3.6,5.1
					c0,2.2,0,19.6,0,21.4c0,2.8-2.3,5.1-5.2,5.1H69.9V148.8z M77.7,174.1h5.6v-17.6h-5.6V174.1z M84.2,201.4v-19.5h-6.6v19.5H84.2z"
					/>
			</g>
			<g>
				<path class="st0" d="M98.5,154c0-2.8,2.4-5.2,5.2-5.2h11.7c2.9,0,5.2,2.4,5.2,5.2V204c0,2.8-2.3,5.1-5.2,5.1h-11.7
					c-2.8,0-5.2-2.3-5.2-5.1V154z M112.8,156.5h-6.6v44.8h6.6V156.5z"/>
			</g>
			<g>
				<path class="st0" d="M127.5,154c0-2.8,2.4-5.2,5.2-5.2h11.7c2.9,0,5.2,2.4,5.2,5.2V204c0,2.8-2.3,5.1-5.2,5.1h-11.7
					c-2.8,0-5.2-2.3-5.2-5.1V154z M141.8,156.5h-6.5v44.8h6.5V156.5z"/>
			</g>
			<g>
				<path class="st0" d="M183,209.1v-32.6l-6.4,19.6h-6.3l-5.9-19.6v32.6h-8v-60.3h7.8l9.2,30.2l9.6-30.2h7.8v60.3H183z"/>
			</g>
			<g>
				<path class="st0" d="M70.8,149.9h14.8c2.9,0,4.6,2.2,4.6,4.6v18.9c0,1.8-0.9,3.4-2.7,3.9l-1.3-0.9c0,0,1.4-1.4,1.4-3.7v-17.5
					c0-1.5-1.2-2.7-2.7-2.7H73.4L70.8,149.9z M74.2,153.4l2.6,2.5v19.3h6.5c0.6,0,1-0.2,1-0.2l1.3,0.9c-0.9,1.3-2.8,1.9-4.1,1.9
					h-7.2V153.4z M74.2,179.6l2.6,2.5v20.3h8.3l1.9,1.9c-0.4,0.4-0.8,0.7-1.4,0.7H74.2V179.6z M88.5,182.9c0-2.7-1.6-4.4-4.7-4.4
					c1.7,0,4.1,0,4.1,0c1.6,0.3,3.3,1.9,3.3,4.4V204c0,1.5-0.6,2.5-1.3,3.2l-2-2c0.2-0.2,0.7-0.6,0.7-2.1V182.9z"/>
			</g>
			<g>
				<path class="st0" d="M117.1,155.1c0-1.5-1.2-2.7-2.7-2.7h-9.6c-1.2,0-2,0.3-2.3,0.6l-2-1.7c0.9-0.9,2.1-1.5,3.4-1.5h11.1
					c2.7,0,4.6,2,4.6,4.6V204c0,1.5-0.6,2.5-1.3,3.2l-2-2c0.2-0.2,0.7-0.6,0.7-2.1V155.1z M102.8,155.6c0-1.1,0.3-1.6,0.5-1.8
					l2.1,2.1v46.5h8.3l1.9,1.9c-0.4,0.4-0.8,0.7-1.4,0.7h-8.8c-1.4,0-2.6-1.2-2.6-2.6V155.6z"/>
			</g>
			<g>
				<path class="st0" d="M146.1,155.1c0-1.5-1.2-2.7-2.7-2.7h-9.6c-1.2,0-2,0.3-2.3,0.6l-2-1.7c1-0.9,2.1-1.5,3.4-1.5h11.1
					c2.7,0,4.6,2,4.6,4.6V204c0,1.5-0.6,2.5-1.3,3.2l-2-2c0.2-0.2,0.7-0.6,0.7-2.1V155.1z M131.8,155.6c0-1.1,0.3-1.6,0.5-1.8
					l2.1,2.1v46.5h8.3l1.9,1.9c-0.4,0.4-0.8,0.7-1.4,0.7h-8.8c-1.4,0-2.6-1.2-2.6-2.6V155.6z"/>
			</g>
			<g>
				<path class="st0" d="M161.8,153.3l-4.5-3.5h6.3l9.8,32.5v7.8L161.8,153.3z M163.6,208.5l-2.6-2.6l-0.1-46.9l2.7,15.3V208.5z
					 M176.2,194.9l-1.7-3.4l11-35.8l-2.2,17L176.2,194.9z M187.3,205.9v-52.6l-3.4-3.5h6v58.6L187.3,205.9z"/>
			</g>
		</g>
		<g>
			<g>
				<g>
					<path class="st0" d="M61.1,82.3h-6.9v-7.8h21.5v7.8h-6.9v52.6h-7.8V82.3z"/>
				</g>
				<g>
					<path class="st0" d="M94.3,123.1h-8.6l-1.2,11.8h-7.8l6.4-60.3h13.8l6.2,60.3h-7.6L94.3,123.1z M86.6,115.3h6.9l-3.4-33
						L86.6,115.3z"/>
				</g>
				<g>
					<path class="st0" d="M108,74.6h7.8v52.6h9.1v7.8H108V74.6z"/>
				</g>
				<g>
					<path class="st0" d="M149.9,134.9h-20V74.6h19.4v7.8h-11.6V99h8.2v7.8h-8.2v20.4h12.2V134.9z"/>
				</g>
				<g>
					<path class="st0" d="M165.4,74.6l7.4,30v-30h7.8v60.3h-9.1l-7.8-32.4v32.4h-7.8V74.6H165.4z"/>
				</g>
				<g>
					<path class="st0" d="M191.8,82.3h-6.9v-7.8h21.5v7.8h-6.9v52.6h-7.8V82.3z"/>
				</g>
				<g>
					<path d="M55,75.6h19.8v6l-3.4-3.4H57.6L55,75.6z M65.4,79.1l2.6,2.6v52.6l-2.6-2.6V79.1z"/>
				</g>
				<g>
					<path d="M83.7,134.2l-2.2-2.2l1.2-11.8l2.2,2.2L83.7,134.2z M86.9,79.1l2.3,2.6l-3.6,34.7h8.9l2.7,2.6H82.8L86.9,79.1z
						 M83.8,75.6h12.2l6.1,58.6l-3-3l-5.5-53h-7.5L83.8,75.6z"/>
				</g>
				<g>
					<path d="M112.3,79.1l-3.4-3.4h6v52.6h9.1v6l-3.4-3.5h-8.3V79.1z"/>
				</g>
				<g>
					<path d="M130.8,75.6h17.7v6l-3.5-3.4h-11.3L130.8,75.6z M134.2,79.2l2.6,2.5V100h8.2v6l-3.5-3.4h-7.2V79.2z M134.2,104.4
						l2.6,2.5v21.3h12.2v6l-3.4-3.5h-11.4V104.4z"/>
				</g>
				<g>
					<path d="M174,113l2.4,17.9l-14-52.7h-3l-2.6-2.6h7.8L174,113z M162.8,134.2l-2.6-2.6V79.1l2.6,20.2V134.2z M179.7,75.6v58.6
						l-2.6-2.6V79.1l-3.4-3.4H179.7z"/>
				</g>
				<g>
					<path d="M185.8,75.6h19.8v6l-3.4-3.4h-13.8L185.8,75.6z M196.1,79.1l2.6,2.6v52.6l-2.6-2.6V79.1z"/>
				</g>
			</g>
			<g>
				<g>
					<path class="st0" d="M69.9,147.6h15.9c2.9,0,5.2,2.4,5.2,5.2v19.4c0,2.2-1.1,3.8-2.7,4.2c2.3,0.5,3.6,2.9,3.6,5.1
						c0,2.2,0,19.6,0,21.4c0,2.8-2.3,5.1-5.2,5.1H69.9V147.6z M77.7,173h5.6v-17.6h-5.6V173z M84.2,200.2v-19.5h-6.6v19.5H84.2z"/>
				</g>
				<g>
					<path class="st0" d="M98.5,152.8c0-2.8,2.4-5.2,5.2-5.2h11.7c2.9,0,5.2,2.4,5.2,5.2v50.1c0,2.8-2.3,5.1-5.2,5.1h-11.7
						c-2.8,0-5.2-2.3-5.2-5.1V152.8z M112.8,155.4h-6.6v44.8h6.6V155.4z"/>
				</g>
				<g>
					<path class="st0" d="M127.5,152.8c0-2.8,2.4-5.2,5.2-5.2h11.7c2.9,0,5.2,2.4,5.2,5.2v50.1c0,2.8-2.3,5.1-5.2,5.1h-11.7
						c-2.8,0-5.2-2.3-5.2-5.1V152.8z M141.8,155.4h-6.5v44.8h6.5V155.4z"/>
				</g>
				<g>
					<path class="st0" d="M183,207.9v-32.6l-6.4,19.6h-6.3l-5.9-19.6v32.6h-8v-60.3h7.8l9.2,30.2l9.6-30.2h7.8v60.3H183z"/>
				</g>
				<g>
					<path d="M70.8,148.7h14.8c2.9,0,4.6,2.2,4.6,4.6v18.9c0,1.8-0.9,3.4-2.7,3.9l-1.3-0.9c0,0,1.4-1.4,1.4-3.7v-17.5
						c0-1.5-1.2-2.7-2.7-2.7H73.4L70.8,148.7z M74.2,152.2l2.6,2.5V174h6.5c0.6,0,1-0.2,1-0.2l1.3,0.9c-0.9,1.3-2.8,1.9-4.1,1.9
						h-7.2V152.2z M74.2,178.4l2.6,2.5v20.3h8.3l1.9,1.9c-0.4,0.4-0.8,0.7-1.4,0.7H74.2V178.4z M88.5,181.7c0-2.7-1.6-4.4-4.7-4.4
						c1.7,0,4.1,0,4.1,0c1.6,0.3,3.3,1.9,3.3,4.4v21.1c0,1.5-0.6,2.5-1.3,3.2l-2-2c0.2-0.2,0.7-0.6,0.7-2.1V181.7z"/>
				</g>
				<g>
					<path d="M117.1,153.9c0-1.5-1.2-2.7-2.7-2.7h-9.6c-1.2,0-2,0.3-2.3,0.6l-2-1.7c0.9-0.9,2.1-1.5,3.4-1.5h11.1
						c2.7,0,4.6,2,4.6,4.6v49.6c0,1.5-0.6,2.5-1.3,3.2l-2-2c0.2-0.2,0.7-0.6,0.7-2.1V153.9z M102.8,154.5c0-1.1,0.3-1.6,0.5-1.8
						l2.1,2.1v46.5h8.3l1.9,1.9c-0.4,0.4-0.8,0.7-1.4,0.7h-8.8c-1.4,0-2.6-1.2-2.6-2.6V154.5z"/>
				</g>
				<g>
					<path d="M146.1,153.9c0-1.5-1.2-2.7-2.7-2.7h-9.6c-1.2,0-2,0.3-2.3,0.6l-2-1.7c1-0.9,2.1-1.5,3.4-1.5h11.1c2.7,0,4.6,2,4.6,4.6
						v49.6c0,1.5-0.6,2.5-1.3,3.2l-2-2c0.2-0.2,0.7-0.6,0.7-2.1V153.9z M131.8,154.5c0-1.1,0.3-1.6,0.5-1.8l2.1,2.1v46.5h8.3
						l1.9,1.9c-0.4,0.4-0.8,0.7-1.4,0.7h-8.8c-1.4,0-2.6-1.2-2.6-2.6V154.5z"/>
				</g>
				<g>
					<path d="M161.8,152.1l-4.5-3.5h6.3l9.8,32.5v7.8L161.8,152.1z M163.6,207.3l-2.6-2.6l-0.1-46.9l2.7,15.3V207.3z M176.2,193.8
						l-1.7-3.4l11-35.8l-2.2,17L176.2,193.8z M187.3,204.7v-52.6l-3.4-3.5h6v58.6L187.3,204.7z"/>
				</g>
			</g>
		</g>
	</g>
	<g>
		<path class="st0" d="M117.5,47.3h-3.1v-2.9h9.1v2.9h-3.1v16.5h-2.9V47.3z"/>
		<path class="st0" d="M128.8,55.6v8.2h-2.9V44.4h2.9v8.3h3.5v-8.3h2.9v19.4h-2.9v-8.2H128.8z"/>
		<path class="st0" d="M137.9,63.8V44.4h8.3v2.9h-5.4v5.3h4v2.9h-4v5.3h5.4v2.9H137.9z"/>
	</g>
</g>
</svg>
